<?xml version="1.0" encoding="UTF-8" standalone="no"?>
<svg
   width="128"
   height="128"
   version="1.1"
   id="svg6"
   sodipodi:docname="icon.svg"
   inkscape:version="1.4 (e7c3feb100, 2024-10-09)"
   xmlns:inkscape="http://www.inkscape.org/namespaces/inkscape"
   xmlns:sodipodi="http://sodipodi.sourceforge.net/DTD/sodipodi-0.dtd"
   xmlns="http://www.w3.org/2000/svg"
   xmlns:svg="http://www.w3.org/2000/svg">
  <defs
     id="defs6" />
  <sodipodi:namedview
     id="namedview6"
     pagecolor="#505050"
     bordercolor="#eeeeee"
     borderopacity="1"
     inkscape:showpageshadow="0"
     inkscape:pageopacity="0"
     inkscape:pagecheckerboard="0"
     inkscape:deskcolor="#505050"
     inkscape:zoom="4.2238527"
     inkscape:cx="3.3145095"
     inkscape:cy="83.099489"
     inkscape:window-width="2560"
     inkscape:window-height="995"
     inkscape:window-x="0"
     inkscape:window-y="0"
     inkscape:window-maximized="1"
     inkscape:current-layer="svg6" />
  <path
     style="fill:#007fff;fill-opacity:1;stroke:#007fff;stroke-width:9.836;stroke-linecap:round;stroke-linejoin:round;stroke-miterlimit:1;stroke-dasharray:none;stroke-opacity:1"
     id="path6-3"
     sodipodi:type="arc"
     sodipodi:cx="64.026588"
     sodipodi:cy="64.241806"
     sodipodi:rx="59.026741"
     sodipodi:ry="59.026741"
     sodipodi:start="0"
     sodipodi:end="6.2453843"
     sodipodi:open="true"
     sodipodi:arc-type="arc"
     d="M 123.05333,64.241806 A 59.026741,59.026741 0 0 1 64.584398,123.26591 59.026741,59.026741 0 0 1 5.0103901,65.357375 59.026741,59.026741 0 0 1 62.35336,5.2387852 59.026741,59.026741 0 0 1 123.01116,62.011067" />
  <path
     style="fill:none;fill-opacity:1;stroke:#51ff00;stroke-width:10;stroke-linecap:round;stroke-linejoin:round;stroke-miterlimit:1;stroke-dasharray:none;stroke-opacity:1"
     d="M 43.806616,117.25191 C 57.811705,95.430025 31.430025,61.720102 31.430025,61.720102 c 0,0 -7.816793,-24.590331 13.67939,-27.521629 C 66.605598,31.267176 58.877066,6.3693775 58.877066,6.3693775"
     id="path7"
     sodipodi:nodetypes="ccsc" />
  <path
     style="fill:none;fill-opacity:1;stroke:#51ff00;stroke-width:10;stroke-linecap:round;stroke-linejoin:round;stroke-miterlimit:1;stroke-dasharray:none;stroke-opacity:1"
     d="m 67.450279,119.39939 c 0,0 -12.081322,-10.12713 -4.590228,-28.529161 C 70.351145,72.468193 96.569975,61.557252 91.521629,47.877863 86.473283,34.198473 70.351145,37.455471 72.631043,25.40458 74.910941,13.35369 77.372751,7.936963 77.372751,7.936963"
     id="path8"
     sodipodi:nodetypes="csssc" />
  <path
     style="fill:none;fill-opacity:1;stroke:none;stroke-width:0.683969;stroke-linecap:round;stroke-linejoin:round;stroke-miterlimit:1;stroke-dasharray:none;stroke-opacity:1"
     d="m 67.693871,122.4473 c -0.868181,-0.63847 -3.024397,-3.20635 -4.294119,-5.11397 -1.191473,-1.79005 -2.697679,-4.86368 -3.357431,-6.85132 -2.881885,-8.68229 -1.318051,-18.152702 4.415344,-26.738842 2.916746,-4.368021 5.016523,-6.73955 12.340807,-13.937958 9.168085,-9.010517 11.390979,-11.683685 12.714104,-15.289504 1.204688,-3.283048 0.51192,-6.507389 -2.160012,-10.053308 -1.658583,-2.201107 -3.520526,-3.620042 -8.126101,-6.192678 -3.611111,-2.017135 -4.757879,-2.795715 -6.110627,-4.148708 -1.852725,-1.853059 -2.683266,-3.897893 -2.683266,-6.606336 0,-4.545659 4.642299,-20.6973739 6.445534,-22.4256175 0.770738,-0.7386853 1.760463,-0.7495229 2.581922,-0.028272 0.878591,0.7714128 0.910715,1.3444027 0.175982,3.1389238 -2.330957,5.6931567 -4.899938,15.2050297 -5.091373,18.8512447 -0.178066,3.391568 0.671332,4.365841 6.798876,7.798426 4.634413,2.596148 6.697633,4.149525 8.685432,6.53917 2.794463,3.359383 4.342752,7.369632 4.112077,10.650764 -0.238761,3.396119 -1.588778,6.351772 -4.806153,10.522321 -0.575747,0.746316 -4.166587,4.471459 -7.979643,8.27809 -9.209159,9.193642 -10.895691,11.08449 -13.720912,15.383141 -2.742234,4.172384 -4.318429,8.41159 -4.848721,13.040729 -0.22956,2.003914 -0.211774,3.320764 0.07433,5.503294 0.688127,5.24933 2.993351,9.95526 6.954247,14.19655 1.142137,1.22299 1.188376,1.30365 1.188376,2.0729 0,0.71628 -0.06393,0.85898 -0.608296,1.35785 -0.827399,0.75826 -1.717717,0.77577 -2.700378,0.0531 z"
     id="path9" />
  <path
     style="fill:#22ff00;stroke:#51ff00;stroke-width:2.32868;stroke-linecap:round;stroke-linejoin:round;stroke-miterlimit:1;stroke-dasharray:none;stroke-opacity:1;fill-opacity:1"
     d="m 55.48244,117.41938 c -1.386813,-0.24432 -3.091418,-0.59047 -3.788011,-0.76922 -1.490815,-0.38255 -1.485274,-0.34408 -0.46764,-3.24658 1.147139,-3.27189 1.478702,-5.24491 1.617089,-9.6228 0.13732,-4.344074 -0.09008,-7.114265 -0.910368,-11.090289 C 50.059492,83.606957 45.000726,72.440183 38.278497,62.54827 35.871058,59.005671 35.956095,59.198464 35.529719,56.316277 34.016307,46.086013 37.258612,40.653309 45.692881,39.287199 c 5.928542,-0.960254 10.105623,-2.871313 13.335399,-6.10109 2.680016,-2.680014 4.484818,-5.979257 5.542907,-10.132622 0.478986,-1.8802 0.53525,-2.670214 0.53525,-7.515724 v -5.414672 l 2.722633,0.16474 c 1.497448,0.09061 2.802375,0.241811 2.899836,0.33601 0.09746,0.0942 -0.08622,1.0799 -0.408177,2.190448 -1.561245,5.385273 -2.96516,12.32121 -2.96516,14.649155 0,4.45577 1.912315,8.016432 5.778071,10.758554 0.793555,0.562896 2.683779,1.715448 4.200501,2.561228 3.934666,2.194116 5.197426,3.08248 6.756739,4.75344 2.904592,3.112554 3.538952,5.896783 2.032562,8.920969 -1.345547,2.701278 -3.0803,4.683817 -11.078741,12.661183 -7.809094,7.78852 -10.541869,10.876061 -13.201484,14.915293 -4.99871,7.591685 -7.271691,16.241909 -6.315939,24.036409 0.477098,3.8909 1.39813,6.59807 3.96483,11.65376 0.143719,0.28308 -1.291747,0.17393 -4.009668,-0.3049 z"
     id="path2" />
  <path
     style="fill:none;fill-opacity:1;stroke:#0028ff;stroke-width:9.836;stroke-linecap:round;stroke-linejoin:round;stroke-miterlimit:1;stroke-dasharray:none;stroke-opacity:1"
     id="path6"
     sodipodi:type="arc"
     sodipodi:cx="64.33255"
     sodipodi:cy="64.169701"
     sodipodi:rx="59.026741"
     sodipodi:ry="59.026741"
     sodipodi:start="0"
     sodipodi:end="6.2453843"
     sodipodi:open="true"
     sodipodi:arc-type="arc"
     d="M 123.35929,64.169701 A 59.026741,59.026741 0 0 1 64.890359,123.19381 59.026741,59.026741 0 0 1 5.3163517,65.285269 59.026741,59.026741 0 0 1 62.659322,5.1666798 59.026741,59.026741 0 0 1 123.31712,61.938962" />
</svg>
