<?xml version="1.0" encoding="UTF-8" standalone="no"?>
<svg
   width="128"
   height="128"
   version="1.1"
   id="svg6"
   sodipodi:docname="icon.svg"
   inkscape:version="1.4 (e7c3feb100, 2024-10-09)"
   xmlns:inkscape="http://www.inkscape.org/namespaces/inkscape"
   xmlns:sodipodi="http://sodipodi.sourceforge.net/DTD/sodipodi-0.dtd"
   xmlns="http://www.w3.org/2000/svg"
   xmlns:svg="http://www.w3.org/2000/svg">
  <defs
     id="defs6" />
  <sodipodi:namedview
     id="namedview6"
     pagecolor="#505050"
     bordercolor="#eeeeee"
     borderopacity="1"
     inkscape:showpageshadow="0"
     inkscape:pageopacity="0"
     inkscape:pagecheckerboard="0"
     inkscape:deskcolor="#505050"
     inkscape:zoom="23.893719"
     inkscape:cx="70.813589"
     inkscape:cy="-0.71148405"
     inkscape:window-width="2560"
     inkscape:window-height="995"
     inkscape:window-x="0"
     inkscape:window-y="0"
     inkscape:window-maximized="1"
     inkscape:current-layer="svg6" />
  <path
     style="fill:#004eff;stroke-linecap:round;stroke-linejoin:round;stroke-miterlimit:1;fill-opacity:1;stroke:#19228c;stroke-opacity:1;stroke-width:4.2;stroke-dasharray:none"
     id="path6"
     sodipodi:type="arc"
     sodipodi:cx="63.267174"
     sodipodi:cy="63.104324"
     sodipodi:rx="60.010178"
     sodipodi:ry="60.010178"
     sodipodi:start="0"
     sodipodi:end="6.2453843"
     sodipodi:open="true"
     sodipodi:arc-type="arc"
     d="M 123.27735,63.104324 A 60.010178,60.010178 0 0 1 63.834277,123.11182 60.010178,60.010178 0 0 1 3.2677145,64.238479 60.010178,60.010178 0 0 1 61.566068,3.1182622 60.010178,60.010178 0 0 1 123.23448,60.836419" />
  <path
     style="fill:none;fill-opacity:1;stroke:#069a0f;stroke-width:4.2;stroke-linecap:round;stroke-linejoin:round;stroke-miterlimit:1;stroke-dasharray:none;stroke-opacity:1"
     d="M 43.806616,117.25191 C 57.811705,95.430025 31.430025,61.720102 31.430025,61.720102 c 0,0 -7.816793,-24.590331 13.67939,-27.521629 C 66.605598,31.267176 58.877066,6.3693775 58.877066,6.3693775"
     id="path7"
     sodipodi:nodetypes="ccsc" />
  <path
     style="fill:none;fill-opacity:1;stroke:#069a0f;stroke-width:4.2;stroke-linecap:round;stroke-linejoin:round;stroke-miterlimit:1;stroke-dasharray:none;stroke-opacity:1"
     d="m 67.450279,119.39939 c 0,0 -12.081322,-10.12713 -4.590228,-28.529161 C 70.351145,72.468193 96.569975,61.557252 91.521629,47.877863 86.473283,34.198473 70.351145,37.455471 72.631043,25.40458 74.910941,13.35369 77.372751,7.936963 77.372751,7.936963"
     id="path8"
     sodipodi:nodetypes="csssc" />
  <path
     style="fill:none;fill-opacity:1;stroke:none;stroke-width:0.683969;stroke-linecap:round;stroke-linejoin:round;stroke-miterlimit:1;stroke-dasharray:none;stroke-opacity:1"
     d="m 67.693871,122.4473 c -0.868181,-0.63847 -3.024397,-3.20635 -4.294119,-5.11397 -1.191473,-1.79005 -2.697679,-4.86368 -3.357431,-6.85132 -2.881885,-8.68229 -1.318051,-18.152702 4.415344,-26.738842 2.916746,-4.368021 5.016523,-6.73955 12.340807,-13.937958 9.168085,-9.010517 11.390979,-11.683685 12.714104,-15.289504 1.204688,-3.283048 0.51192,-6.507389 -2.160012,-10.053308 -1.658583,-2.201107 -3.520526,-3.620042 -8.126101,-6.192678 -3.611111,-2.017135 -4.757879,-2.795715 -6.110627,-4.148708 -1.852725,-1.853059 -2.683266,-3.897893 -2.683266,-6.606336 0,-4.545659 4.642299,-20.6973739 6.445534,-22.4256175 0.770738,-0.7386853 1.760463,-0.7495229 2.581922,-0.028272 0.878591,0.7714128 0.910715,1.3444027 0.175982,3.1389238 -2.330957,5.6931567 -4.899938,15.2050297 -5.091373,18.8512447 -0.178066,3.391568 0.671332,4.365841 6.798876,7.798426 4.634413,2.596148 6.697633,4.149525 8.685432,6.53917 2.794463,3.359383 4.342752,7.369632 4.112077,10.650764 -0.238761,3.396119 -1.588778,6.351772 -4.806153,10.522321 -0.575747,0.746316 -4.166587,4.471459 -7.979643,8.27809 -9.209159,9.193642 -10.895691,11.08449 -13.720912,15.383141 -2.742234,4.172384 -4.318429,8.41159 -4.848721,13.040729 -0.22956,2.003914 -0.211774,3.320764 0.07433,5.503294 0.688127,5.24933 2.993351,9.95526 6.954247,14.19655 1.142137,1.22299 1.188376,1.30365 1.188376,2.0729 0,0.71628 -0.06393,0.85898 -0.608296,1.35785 -0.827399,0.75826 -1.717717,0.77577 -2.700378,0.0531 z"
     id="path9" />
  <path
     style="fill:#22ff00;fill-opacity:1;stroke:#22ff00;stroke-width:0.683969;stroke-linecap:round;stroke-linejoin:round;stroke-miterlimit:1;stroke-dasharray:none;stroke-opacity:1"
     d="m 59.719721,120.81904 c -3.847895,-0.2324 -8.032953,-0.92909 -11.716719,-1.95049 -0.964501,-0.26743 -1.847397,-0.51926 -1.961991,-0.55962 -0.145243,-0.0512 0.05981,-0.57997 0.676972,-1.74586 2.426847,-4.5846 3.483472,-9.50225 3.298563,-15.35187 -0.05096,-1.612218 -0.209292,-3.700767 -0.351844,-4.641225 C 48.02083,85.724823 42.744491,73.88714 34.058691,61.557252 33.380503,60.594532 33.276226,60.314488 32.90656,58.463104 31.317619,50.505265 32.634333,43.817181 36.498724,40.217157 c 2.273856,-2.118297 4.692411,-3.150925 9.12804,-3.89731 4.936982,-0.830746 8.141908,-2.280594 10.908511,-4.934797 2.8865,-2.769233 4.507694,-6.031453 5.359488,-10.784541 0.619525,-3.457006 0.296955,-9.557299 -0.731907,-13.8415327 -0.171986,-0.7161509 -0.275244,-1.3390517 -0.229464,-1.384224 0.146884,-0.1449343 5.817206,-0.033832 7.730728,0.1514735 1.766154,0.1710343 6.83491,0.9529028 6.955847,1.0729574 0.03169,0.031463 -0.308653,1.0694414 -0.756325,2.3066192 -1.745888,4.8248956 -2.994098,9.2925066 -4.018121,14.3817296 -1.015777,5.048245 -0.668446,7.550166 1.412529,10.174816 1.27944,1.613705 2.771532,2.690838 6.886988,4.971681 5.777321,3.20187 7.944626,5.184788 9.699019,8.873859 1.54164,3.241701 1.519466,5.209719 -0.0958,8.50261 -1.520903,3.100528 -3.985889,5.945641 -11.398639,13.156423 -7.201951,7.005727 -10.040291,10.188859 -12.923711,14.493639 -5.241274,7.824923 -7.087962,16.295932 -5.299823,24.31103 0.933727,4.18531 3.048015,8.56638 5.754025,11.92307 l 0.853335,1.05852 -0.622448,0.11275 c -0.769824,0.13945 -2.564374,0.12384 -5.391277,-0.0469 z"
     id="path10" />
</svg>
